<svg width="18" height="18" viewBox="0 0 18 18" fill="none" xmlns="http://www.w3.org/2000/svg">
<path fill-rule="evenodd" clip-rule="evenodd" d="M10.1345 2.2069C9.91821 0.928429 8.08139 0.928428 7.86512 2.2069C7.71013 3.12313 6.58922 3.48733 5.92528 2.83719C4.99885 1.93001 3.51283 3.00966 4.08933 4.17109C4.50248 5.00344 3.80972 5.95694 2.89044 5.82122C1.60771 5.63183 1.0401 7.37875 2.18917 7.97951C3.01266 8.41005 3.01266 9.58864 2.18917 10.0192C1.0401 10.6199 1.60771 12.3669 2.89044 12.1775C3.80972 12.0417 4.50248 12.9953 4.08933 13.8276C3.51283 14.989 4.99885 16.0687 5.92528 15.1615C6.58922 14.5114 7.71013 14.8756 7.86512 15.7918C8.08139 17.0703 9.91821 17.0703 10.1345 15.7918C10.2895 14.8756 11.4104 14.5114 12.0743 15.1615C13.0008 16.0687 14.4868 14.989 13.9103 13.8276C13.4971 12.9953 14.1899 12.0417 15.1092 12.1775C16.3919 12.3669 16.9595 10.6199 15.8104 10.0192C14.9869 9.58864 14.9869 8.41005 15.8104 7.97951C16.9595 7.37875 16.3919 5.63183 15.1092 5.82122C14.1899 5.95694 13.4971 5.00344 13.9103 4.17109C14.4868 3.00966 13.0008 1.93001 12.0743 2.83719C11.4104 3.48733 10.2895 3.12313 10.1345 2.2069ZM7.71956 10.9945C7.6705 10.9454 7.62966 10.8912 7.59704 10.8337L6.53013 9.76679C6.23724 9.47389 6.23724 8.99902 6.53013 8.70613C6.82303 8.41323 7.2979 8.41323 7.59079 8.70613L8.26901 9.38435L10.6845 6.96884C10.9774 6.67594 11.4523 6.67594 11.7452 6.96884C12.0381 7.26173 12.0381 7.7366 11.7452 8.0295L8.78022 10.9945C8.48732 11.2874 8.01245 11.2874 7.71956 10.9945Z" fill="#5269A0"/>
</svg>
