<svg width="44" height="44" viewBox="0 0 44 44" fill="none" xmlns="http://www.w3.org/2000/svg">
<path fill-rule="evenodd" clip-rule="evenodd" d="M24.6785 2H18.8001V6.31419C15.207 6.99059 12.0433 8.88357 9.75323 11.5489L5.94141 9.34816L3.13863 14.2027L12.1467 19.2913C12.4681 18.0822 13.0174 16.9371 13.7732 15.9207C15.0465 14.2082 16.8382 12.9519 18.8822 12.3385C20.9262 11.7251 23.1135 11.7873 25.1194 12.5157C27.1253 13.2441 28.8428 14.6 30.0169 16.382L26.763 18.5259C26.0501 17.4439 25.0072 16.6206 23.7893 16.1783C22.5714 15.736 21.2433 15.6983 20.0022 16.0708C18.7612 16.4432 17.6733 17.206 16.9002 18.2458C16.127 19.2856 15.7098 20.547 15.7105 21.8427C15.7111 23.1385 16.1297 24.3995 16.9039 25.4385C17.6781 26.4775 18.7668 27.2391 20.0083 27.6102C21.2497 27.9814 22.5778 27.9423 23.7952 27.4987C25.0127 27.0552 26.0547 26.2308 26.7664 25.1481L30.0226 27.2885C28.8503 29.0718 27.1342 30.4295 25.1291 31.16C23.124 31.8905 20.9367 31.9549 18.8921 31.3436C16.8475 30.7323 15.0545 29.478 13.7794 27.7668C12.9284 26.6248 12.3383 25.3199 12.0396 23.9439L6.7992 26.9833C6.80017 26.9862 6.80115 26.989 6.80213 26.9918L3 29.187L5.93916 34.2778L9.72264 32.0934C12.0151 34.7775 15.191 36.6844 18.8001 37.3638V41.6787H24.6785V37.3644C28.2955 36.6841 31.4775 34.7712 33.7715 32.0785L37.5817 34.2783L40.5208 29.1875L36.6857 26.9733C37.2386 25.3635 37.5387 23.6363 37.5387 21.839C37.5387 20.0258 37.2332 18.284 36.671 16.6621L40.5225 14.4384L37.5833 9.34766L33.7422 11.5653C31.4505 8.89064 28.2801 6.99099 24.6785 6.31366V2Z" fill="url(#paint0_radial_3918_111486)"/>
<defs>
<radialGradient id="paint0_radial_3918_111486" cx="0" cy="0" r="1" gradientUnits="userSpaceOnUse" gradientTransform="translate(21.7612 21.8393) rotate(90) scale(19.8393 18.7612)">
<stop stop-color="#DF5DCD"/>
<stop offset="1" stop-color="#7463DE"/>
</radialGradient>
</defs>
</svg>
