<svg xmlns="http://www.w3.org/2000/svg" viewBox="0 0 836.15 697.97"><defs><style>.cls-1{fill:#fefefe;}</style></defs><g id="Layer_2" data-name="Layer 2"><g id="Layer_1-2" data-name="Layer 1"><path class="cls-1" d="M67.92,0h29a35.8,35.8,0,0,1,1,5.74c.07,18.64,0,37.28,0,55.92,0,29.83,21.27,50.68,51.06,51.9,21.05.86,42.29,2.22,63,6C283.16,132.45,344.3,165.31,396,215.9a13.84,13.84,0,0,1,4.48,10.61q-.12,86.87-.07,173.74c0,1.91-.32,3.82-.6,6.91-2.23-2.73-3.71-4.49-5.14-6.3L300,281c-17.78-22.54-40.53-36.34-69.54-38-58.61-3.47-105,48.12-95.82,106.22,5.83,37,33.89,66.64,71,75,36,8.09,74.74-7.05,95.07-38,6.19-9.44,10.32-20.23,15.37-30.34-.35-.31.2,0,.58.54q33.45,43.84,66.73,87.82c.82,1.1.44,4.26-.57,5.4-9.62,10.76-19.48,21.32-29.34,31.87a62.16,62.16,0,0,1-5.07,4.51c12.59,9,25.26,17,36.76,26.45s22.07,20.54,33.55,31.39c19.39-23.1,42.68-42,69.74-57.15-2.58-2.24-4.48-3.61-6-5.29-9.65-10.3-19.22-20.68-28.84-31-2.41-2.59-2.38-4.67-.05-7.69,21.71-28.21,43.21-56.59,64.79-84.9.74-1,1.65-1.8,2.72-3,.91,2.74,1.63,4.95,2.37,7.15,15,44.63,50,63.14,86,64.19,53.36,1.57,96.23-43.76,93-97.06-3.57-59.19-59.48-97.33-115.76-83.26-20.89,5.23-36.8,18.15-49.92,34.66q-47.67,60-95.05,120.18c-1.56,2-3.18,3.91-4.77,5.87l-1.23-.53v-5.8c0-56.09.15-112.17-.16-168.26-.05-8.12,2.22-13.8,8.21-19.5,45.67-43.51,98.87-73.17,160-88.66,28.06-7.11,56.66-9.49,85.48-10.44s49-22.36,49-51.07c0-18.47,0-36.94,0-55.41a49.29,49.29,0,0,1,1-6.79h29c.38,2.24,1.11,4.48,1.11,6.72,0,19.29-.09,38.58-.11,57.88,0,41-31.28,75.57-72.1,79.32-12.24,1.13-24.57,1.21-36.84,2-3.61.21-7.19,1-10.78,1.53.85,1.49,1.59,1.89,2.37,2.07,20.27,4.64,39.09,12.73,56.93,23.34a11.13,11.13,0,0,0,7.92.75c45.8-13.41,73.8-43.48,83.58-90.24,1.31-6.24,1.64-12.69,2.46-19.41h33.39v17a5.79,5.79,0,0,0-.83,1.67c-7.53,51.18-34.49,88.67-79.85,113.16-3.47,1.87-7.09,3.47-11.05,5.4,1.67,1.82,3,3.26,4.34,4.73,40.51,45,57.39,97.8,48.9,157.49-8.85,62.17-41.92,109.07-96.41,140.28-31.93,18.29-66.64,26.08-103.48,23.85-6.47-.39-13.14-1.78-19.38-.73C518.32,536.83,474.2,569,447,623.61a161.06,161.06,0,0,0-16.83,69.7c-.06,3.4-1.15,4.8-4.66,4.65-5-.22-10-.15-15,0-2.86.07-4.09-.85-4.27-3.93-.43-7.3-.67-14.69-2-21.84C390.51,599.8,348.4,552.52,278,530.86c-8.91-2.74-18.77-4.76-27.9-4-20.61,1.83-41,1.2-61.06-3A191.36,191.36,0,0,1,36.5,330.33c1.45-44.77,16.71-84.4,45.8-118.6,3-3.5,6-6.93,9.34-10.72C64.26,188.7,41.41,171.46,25,146.56S-.59,94.72,0,64.08h25c8.43,0,8.43,0,9.31,8,.15,1.32.33,2.64.46,4,4.42,45.85,39.58,86.64,84.32,97.42a13.72,13.72,0,0,0,9.29-1.33,197,197,0,0,1,54.68-22.42c1.29-.31,2.52-.87,3.78-1.31a7.72,7.72,0,0,0-4.37-1.81c-11-.72-21.9-1.84-32.85-1.92-48-.37-82.75-35.11-82.75-83,0-18.47,0-36.94,0-55.41A41.17,41.17,0,0,1,67.92,0ZM417.35,579.51c-.52-.73-1.53-2-2.45-3.4a217.92,217.92,0,0,0-83.14-73.58c-1.65-.85-4.15-1.71-5.57-1.06-7.94,3.66-15.68,7.78-24.39,12.2,27.38,10.7,50.65,25.67,70.64,45.75s34.67,43.7,45.64,70.06c22.45-54.89,60.63-93.43,116.17-115.9-7.37-3.74-14-6.84-20.29-10.39-3.72-2.1-6.82-2.22-10.7-.2-19.75,10.33-38,22.81-53.44,38.87C438.47,553.69,428.33,566.69,417.35,579.51Z"/><path class="cls-1" d="M440.56,452.38c-1.91,7.08-3.2,14.51-5.93,21.37-3.84,9.67-8.52,19-13.29,28.3-2,3.89-4.22,3.75-6.58,0-9.28-14.79-15.93-30.67-18.12-48.06-1.4-11.14,5-19.54,16.32-23,8.47-2.57,19.79,2.12,24.27,10.56C438.88,444.67,439.38,448.39,440.56,452.38Z"/></g></g></svg>