<svg id="Layer_1" data-name="Layer 1" xmlns="http://www.w3.org/2000/svg" viewBox="0 0 262 262"><defs><style>.cls-1{fill:#312f42;}.cls-2{fill:#fbff4a;}</style></defs><path class="cls-1" d="M251.7,80A131.07,131.07,0,0,0,10.3,80,131,131,0,0,0,223.63,223.63,131.12,131.12,0,0,0,251.7,80ZM211.86,211.85A114.35,114.35,0,0,1,50.14,50.13,114.35,114.35,0,0,1,211.86,211.85Z"/><path class="cls-2" d="M245.35,131A114.35,114.35,0,0,1,50.14,211.85,114.35,114.35,0,0,1,211.86,50.13,113.65,113.65,0,0,1,245.35,131Z"/><path class="cls-1" d="M106.06,196.32,57.41,148.6a8.32,8.32,0,0,1,11.66-11.88L106,173l85.85-85a8.32,8.32,0,1,1,11.71,11.83Z"/></svg>